<svg width="20" height="20" viewBox="0 0 20 20" fill="none" xmlns="http://www.w3.org/2000/svg">
<path d="M15.7784 12.4833C15.5297 12.0861 15.3978 11.627 15.3975 11.1583V7.68833C15.3975 6.25683 14.8289 4.88395 13.8166 3.87172C12.8044 2.8595 11.4315 2.29083 10 2.29083C8.56852 2.29083 7.19564 2.8595 6.18341 3.87172C5.17119 4.88395 4.60252 6.25683 4.60252 7.68833V11.1567C4.60259 11.6259 4.47061 12.0856 4.22169 12.4833L3.31502 13.9333C3.23618 14.0595 3.19255 14.2044 3.18864 14.3531C3.18474 14.5018 3.22071 14.6489 3.29282 14.779C3.36493 14.9091 3.47055 15.0175 3.59872 15.093C3.72689 15.1685 3.87294 15.2083 4.02169 15.2083H15.9784C16.1271 15.2083 16.2732 15.1685 16.4013 15.093C16.5295 15.0175 16.6351 14.9091 16.7072 14.779C16.7793 14.6489 16.8153 14.5018 16.8114 14.3531C16.8075 14.2044 16.7639 14.0595 16.685 13.9333L15.7784 12.4833Z" stroke="white" stroke-width="1.5" stroke-linecap="round" stroke-linejoin="round"/>
<path d="M8.33337 17.7083H11.6667" stroke="white" stroke-width="1.5" stroke-linecap="round"/>
</svg>
