<svg width="21" height="21" viewBox="0 0 21 21" fill="none" xmlns="http://www.w3.org/2000/svg">
<path d="M9.41663 9.66669H14.8333M6.49996 9.66669H6.91663M6.49996 6.75002H6.91663M6.49996 12.5834H6.91663M14.8333 12.5834H14M9.41663 12.5834H11.9166M14.8333 6.75002H12.3333M9.41663 6.75002H10.25M18.1666 6.33335V5.80835C18.1666 4.81419 18.1666 4.31669 18.035 3.91669C17.9151 3.54537 17.7114 3.20662 17.4396 2.9267C17.1677 2.64678 16.8351 2.43321 16.4675 2.30252C16.0775 2.16669 15.595 2.16669 14.6291 2.16669H6.70413C5.73829 2.16669 5.25579 2.16669 4.86579 2.30252C4.49823 2.43312 4.16567 2.64657 3.89385 2.92634C3.62203 3.20611 3.41825 3.54469 3.29829 3.91585C3.16663 4.31752 3.16663 4.81419 3.16663 5.80835V13M18.1666 9.66669V17.4784C18.1666 18.1934 17.3458 18.5734 16.8266 18.0984C16.681 17.9638 16.4899 17.889 16.2916 17.889C16.0933 17.889 15.9023 17.9638 15.7566 18.0984L15.3541 18.4667C15.099 18.7027 14.7642 18.8337 14.4166 18.8337C14.0691 18.8337 13.7343 18.7027 13.4791 18.4667C13.224 18.2307 12.8892 18.0997 12.5416 18.0997C12.1941 18.0997 11.8593 18.2307 11.6041 18.4667C11.349 18.7027 11.0142 18.8337 10.6666 18.8337C10.3191 18.8337 9.9843 18.7027 9.72913 18.4667C9.47395 18.2307 9.13918 18.0997 8.79163 18.0997C8.44407 18.0997 8.1093 18.2307 7.85413 18.4667C7.59895 18.7027 7.26418 18.8337 6.91663 18.8337C6.56907 18.8337 6.2343 18.7027 5.97913 18.4667L5.57663 18.0984C5.43097 17.9638 5.23994 17.889 5.04163 17.889C4.84331 17.889 4.65228 17.9638 4.50663 18.0984C3.98746 18.5734 3.16663 18.1934 3.16663 17.4784V16.3334" stroke="#0A0A0A" stroke-width="1.5" stroke-linecap="round"/>
</svg>
