<svg width="21" height="21" viewBox="0 0 21 21" fill="none" xmlns="http://www.w3.org/2000/svg">
<path d="M5.76165 2.16669C4.67498 2.27419 3.94331 2.51585 3.39665 3.06335C2.41748 4.04419 2.41748 5.62335 2.41748 8.78252V12.1325C2.41748 15.2909 2.41748 16.8709 3.39665 17.8525C4.37581 18.8342 5.95248 18.8334 9.10498 18.8334H10.7775C13.93 18.8334 15.5066 18.8334 16.4858 17.8525C17.375 16.9609 17.4575 15.5884 17.465 12.9809" stroke="#0A0A0A" stroke-width="1.5" stroke-linecap="round" stroke-linejoin="round"/>
<path d="M9.10501 6.33335L9.94084 9.25002C10.4075 10.175 10.9933 10.4167 12.4492 10.5C13.6067 10.4717 14.2783 10.335 14.8517 9.83668C15.2425 9.49668 15.4192 8.98418 15.505 8.47418L15.7917 6.75002M17.8817 5.08335V9.25002M7.50084 4.61085C8.82334 3.51335 10.0017 2.92418 12.4458 2.27585C12.7216 2.20305 13.0117 2.20449 13.2867 2.28002C15.45 2.87502 16.6183 3.40335 18.1833 4.57835C18.25 4.62835 18.27 4.72168 18.2233 4.79085C17.7125 5.54252 16.5717 6.15168 13.7733 7.23668C13.1905 7.46096 12.5445 7.45739 11.9642 7.22668C8.98417 6.04335 7.61417 5.41002 7.44751 4.75252C7.44209 4.72628 7.44422 4.69904 7.45366 4.67396C7.4631 4.64889 7.47946 4.627 7.50084 4.61085Z" stroke="#0A0A0A" stroke-width="1.5" stroke-linecap="round" stroke-linejoin="round"/>
</svg>
