<svg width="20" height="21" viewBox="0 0 20 21" fill="none" xmlns="http://www.w3.org/2000/svg">
<path d="M2.75 16.1249C2.75 15.1303 3.14511 14.1764 3.84841 13.4731C4.55171 12.7697 5.50558 12.3746 6.5002 12.3746H14.0006C14.9952 12.3746 15.9491 12.7697 16.6524 13.4731C17.3557 14.1764 17.7508 15.1303 17.7508 16.1249C17.7508 16.6222 17.5532 17.0992 17.2016 17.4508C16.8499 17.8025 16.373 18 15.8757 18H4.6251C4.12779 18 3.65085 17.8025 3.2992 17.4508C2.94755 17.0992 2.75 16.6222 2.75 16.1249Z" stroke="#0A0A0A" stroke-width="1.5" stroke-linejoin="round"/>
<path d="M10.2545 8.62539C11.8079 8.62539 13.0672 7.36611 13.0672 5.8127C13.0672 4.25929 11.8079 3 10.2545 3C8.70116 3 7.44189 4.25929 7.44189 5.8127C7.44189 7.36611 8.70116 8.62539 10.2545 8.62539Z" stroke="#0A0A0A" stroke-width="1.5"/>
</svg>
